<svg width="281" height="291" viewBox="0 0 281 291" fill="none" xmlns="http://www.w3.org/2000/svg">
<path d="M173.454 276.139L176.703 259.117H176.884L180.147 276.139H173.454ZM189.192 289.058L181.956 251.449C181.851 250.844 181.316 250.413 180.705 250.413H172.911C172.293 250.413 171.758 250.852 171.66 251.449L164.424 289.058C164.281 289.821 164.884 290.516 165.675 290.516H170.009C170.635 290.516 171.17 290.071 171.261 289.466L172.391 282.568H181.203L182.333 289.466C182.431 290.071 182.959 290.516 183.592 290.516H187.934C188.718 290.516 189.321 289.821 189.177 289.058" fill="#505050"/>
<path d="M202.504 290.985H203.808C211.64 290.985 214.851 286.346 214.851 280.491V279.267C214.851 274.114 213.064 273.079 209.152 269.543L203.446 264.443C201.079 262.298 200.19 262.6 200.19 260.046V259.646C200.19 257.145 201.253 256.17 203.574 256.17C205.707 256.17 206.778 257.206 206.778 259.827V262.789C206.778 263.461 207.328 263.998 208.021 263.998H213.147C213.825 263.998 214.376 263.461 214.376 262.789V258.316C214.376 252.695 210.645 249.975 204.17 249.975H202.926C195.863 249.975 192.185 252.99 192.185 259.533V260.749C192.185 265.509 194.085 266.831 197.582 269.906L203.341 274.953C205.715 277.03 206.672 276.962 206.672 279.811V280.272C206.672 283.059 205.489 284.45 203.167 284.45C200.846 284.45 199.61 283.286 199.61 280.914V276.207C199.61 275.534 199.052 274.998 198.373 274.998H193.135C192.449 274.998 191.891 275.534 191.891 276.207V282.304C191.891 287.872 195.569 291 202.512 291" fill="#505050"/>
<path d="M149.032 290.985H150.329C158.168 290.985 161.371 286.346 161.371 280.498V279.274C161.371 274.114 159.585 273.087 155.673 269.551L149.975 264.451C147.593 262.305 146.711 262.608 146.711 260.054V259.653C146.711 257.153 147.774 256.178 150.095 256.178C152.228 256.178 153.299 257.213 153.299 259.835V262.796C153.299 263.461 153.849 264.005 154.535 264.005H159.653C160.339 264.005 160.897 263.461 160.897 262.796V258.324C160.897 252.703 157.15 249.983 150.683 249.983H149.44C142.377 249.983 138.699 252.99 138.699 259.54V260.757C138.699 265.516 140.59 266.838 144.095 269.906L149.847 274.953C152.221 277.046 153.171 276.97 153.171 279.811V280.279C153.171 283.067 151.987 284.457 149.673 284.457C147.359 284.457 146.108 283.294 146.108 280.914V276.214C146.108 275.542 145.558 275.006 144.872 275.006H139.641C138.955 275.006 138.405 275.55 138.405 276.214V282.304C138.405 287.872 142.083 291 149.025 291" fill="#505050"/>
<path d="M1.81648 290.056H19.2961C19.982 290.056 20.5398 289.512 20.5398 288.839V284.359C20.5398 283.694 19.9895 283.15 19.2961 283.15H8.29124V272.724H16.9745C17.6604 272.724 18.2182 272.18 18.2182 271.508V267.035C18.2182 266.37 17.6604 265.826 16.9745 265.826H8.29124V256.677H19.2885C19.9744 256.677 20.5322 256.133 20.5322 255.468V251.161C20.5322 250.489 19.982 249.953 19.2885 249.953H1.81648C1.13056 249.953 0.580322 250.489 0.580322 251.161V288.839C0.580322 289.512 1.12303 290.056 1.81648 290.056Z" fill="#505050"/>
<path d="M117.028 290.056H134.515C135.194 290.056 135.759 289.512 135.759 288.839V284.359C135.759 283.694 135.201 283.15 134.515 283.15H123.518V272.724H132.209C132.887 272.724 133.437 272.18 133.437 271.508V267.035C133.437 266.37 132.895 265.826 132.209 265.826H123.518V256.677H134.515C135.194 256.677 135.759 256.133 135.759 255.468V251.161C135.759 250.489 135.201 249.953 134.515 249.953H117.028C116.35 249.953 115.792 250.489 115.792 251.161V288.839C115.792 289.512 116.35 290.056 117.028 290.056Z" fill="#505050"/>
<path d="M45.738 250.973L41.027 274.537L36.2934 250.973C36.1728 250.391 35.6527 249.945 35.0422 249.945H26.8036C26.1102 249.945 25.5298 250.512 25.5298 251.192V288.809C25.5298 289.497 26.1102 290.048 26.8036 290.048H30.9644C31.6729 290.048 32.2382 289.497 32.2382 288.809C32.2081 283.309 32.1025 264.345 32.1025 260.243H32.2834C32.796 263.189 37.5296 283.86 38.5698 289.051C38.6828 289.64 39.2029 290.056 39.8134 290.056H42.2104C42.8285 290.056 43.3486 289.64 43.4616 289.051C44.5018 283.86 49.2354 263.189 49.7555 260.243H49.9288C49.9288 264.557 49.8233 283.331 49.7932 288.809C49.7932 289.497 50.3585 290.048 51.0746 290.048H55.2277C55.9363 290.048 56.4941 289.497 56.4941 288.809V251.192C56.4941 250.504 55.9363 249.945 55.2277 249.945H46.9892C46.3787 249.945 45.851 250.383 45.738 250.973Z" fill="#505050"/>
<path d="M76.619 264.678C76.619 267.33 75.7296 267.745 72.9407 267.745H70.1593V256.103H72.9407C76.3778 256.103 76.619 257.145 76.619 260.613V264.678ZM84.4581 259.17C84.4581 252.264 81.3074 249.953 74.8929 249.953H63.5037C62.8178 249.953 62.2524 250.497 62.2524 251.161V288.839C62.2524 289.504 62.8102 290.048 63.5037 290.048H68.9156C69.594 290.048 70.1593 289.504 70.1593 288.839V274.175H74.8929C81.1265 274.175 84.4581 271.273 84.4581 264.715V259.162V259.17Z" fill="#505050"/>
<path d="M102.963 265.237C102.963 267.148 102.021 268.01 99.3526 268.01H96.0888V255.755H99.3526C102.767 255.755 102.963 256.858 102.963 259.812V265.237ZM102.202 249.953H89.5462C88.8603 249.953 88.3101 250.489 88.3101 251.161V288.839C88.3101 289.512 88.8603 290.056 89.5462 290.056H94.8451C95.5386 290.056 96.0888 289.512 96.0888 288.839V274.152H99.3526C101.968 274.152 102.963 273.91 102.963 276.864V288.832C102.963 289.504 103.521 290.048 104.207 290.048H109.506C110.192 290.048 110.742 289.504 110.742 288.832V275.587C110.742 271.175 108.609 270.843 106.287 269.974C108.307 269.392 110.742 269.052 110.742 264.527V258.112C110.742 252.37 107.893 249.937 102.194 249.937" fill="#505050"/>
<path d="M180.63 200.353L187.685 155.679H188.092L195.147 200.353H180.63ZM214.79 229.138L199.074 138.604C198.848 137.274 197.68 136.307 196.353 136.307H179.431C178.082 136.307 176.936 137.274 176.71 138.604L160.994 229.138C160.7 230.83 162.004 232.379 163.723 232.379H173.152C174.509 232.379 175.655 231.397 175.874 230.045L178.331 214.685H197.461L199.918 230.045C200.129 231.397 201.29 232.379 202.654 232.379H212.084C213.803 232.379 215.099 230.83 214.805 229.138" fill="#505050"/>
<path d="M67.5589 200.353L74.6141 155.679H75.0136L82.0838 200.353H67.5665H67.5589ZM101.719 229.138L86.0033 138.604C85.7772 137.274 84.6089 136.307 83.2823 136.307H66.3529C65.0037 136.307 63.858 137.274 63.6319 138.604L47.9161 229.138C47.6146 230.83 48.9186 232.379 50.6371 232.379H60.0666C61.4234 232.379 62.5766 231.397 62.7877 230.045L65.2524 214.685H84.3827L86.84 230.045C87.0435 231.397 88.2118 232.379 89.5686 232.379H98.9981C100.709 232.379 102.013 230.83 101.719 229.138Z" fill="#505050"/>
<path d="M31.7556 169.112C31.7556 177.249 29.8336 179.319 23.7734 179.319H17.7283V150.012H23.7734C29.8336 150.012 31.7556 152.339 31.7556 160.068V169.112ZM48.7679 156.85C48.7679 141.483 41.9389 136.322 28.0246 136.322H3.27123C1.78633 136.322 0.580322 137.531 0.580322 139.02V229.697C0.580322 231.17 1.78633 232.394 3.27123 232.394H15.0298C16.5147 232.394 17.7207 231.178 17.7207 229.697V193.659H28.0095C41.5318 193.659 48.7528 187.199 48.7528 172.61V156.857L48.7679 156.85Z" fill="#505050"/>
<path d="M23.0574 126.712H25.8915C42.8962 126.712 49.8609 116.377 49.8609 103.351V100.624C49.8609 89.1401 45.9866 83.4661 37.4918 75.586L25.1302 64.223C19.9745 59.4406 18.0449 56.7434 18.0449 51.0467V50.1552C18.0449 44.5946 20.3589 42.4036 25.3865 42.4036C30.0145 42.4036 32.3361 44.7155 32.3361 50.5405V57.1362C32.3361 58.6246 33.5421 59.8334 35.027 59.8334H46.1449C47.6223 59.8334 48.8207 58.6246 48.8207 57.1362V47.1785C48.8207 34.6519 40.7028 28.5927 26.6679 28.5927H23.9619C8.62296 28.5776 0.640692 35.279 0.640692 49.8681V52.5804C0.640692 63.1653 4.76373 69.5041 12.3616 76.3416L24.8513 87.5837C29.9995 92.2226 32.0723 95.4487 32.0723 101.78V102.815C32.0723 109.018 29.4944 112.115 24.4744 112.115C19.4544 112.115 16.7334 109.532 16.7334 104.235V93.7563C16.7334 92.2679 15.5349 91.0591 14.0425 91.0591H2.69091C1.19847 91.0667 0 92.2755 0 93.7639V107.333C0 119.739 7.98227 126.712 23.0574 126.712Z" fill="#505050"/>
<path d="M59.4636 125.677H97.4077C98.8926 125.677 100.099 124.468 100.099 122.98V112.999C100.099 111.503 98.8926 110.302 97.4077 110.302H73.5287V83.7003H92.3801C93.865 83.7003 95.0635 82.4915 95.0635 81.0031V71.0378C95.0635 69.5494 93.8575 68.3406 92.3801 68.3406H73.5287V44.5719H97.4077C98.8926 44.5719 100.099 43.3631 100.099 41.8747V32.2947C100.099 30.7988 98.8926 29.5975 97.4077 29.5975H59.4636C57.9787 29.5975 56.7727 30.7988 56.7727 32.2947V122.972C56.7727 124.461 57.9787 125.669 59.4636 125.669" fill="#505050"/>
<path d="M150.872 31.8716L140.613 87.7423L130.347 31.8716C130.106 30.5646 128.96 29.5975 127.626 29.5975H109.754C108.239 29.5975 106.988 30.8441 106.988 32.3627V122.904C106.988 124.438 108.239 125.669 109.754 125.669H118.777C120.299 125.669 121.551 124.438 121.536 122.904C121.475 110.65 121.257 61.6467 121.257 52.52H121.649C122.757 59.0779 133.03 111.874 135.284 123.441C135.54 124.748 136.671 125.669 138.005 125.669H143.198C144.525 125.669 145.663 124.748 145.919 123.441C148.173 111.874 158.454 59.0855 159.578 52.52H159.954C159.954 62.1302 159.728 110.71 159.676 122.904C159.66 124.438 160.897 125.669 162.434 125.669H171.457C172.979 125.669 174.215 124.438 174.215 122.904V32.3627C174.215 30.8441 172.979 29.5975 171.457 29.5975H153.585C152.251 29.5975 151.098 30.5646 150.864 31.8716" fill="#505050"/>
<path d="M138.812 170.351C138.812 176.554 136.754 179.901 130.95 179.901H123.872V149.227H130.95C136.754 149.227 138.812 151.682 138.812 158.27V170.351ZM137.146 136.315H109.687C108.194 136.315 106.996 137.524 106.996 139.012V229.682C106.996 231.17 108.194 232.379 109.687 232.379H121.181C122.666 232.379 123.872 231.17 123.872 229.682V193.598H130.95C136.633 193.598 138.812 196.439 138.812 203.027V229.682C138.812 231.17 140.018 232.379 141.503 232.379H153.005C154.497 232.379 155.696 231.17 155.696 229.682V200.186C155.696 190.357 151.053 186.24 146.033 184.305C150.404 183.013 155.696 178.881 155.696 168.802V154.523C155.696 141.739 149.515 136.315 137.146 136.315Z" fill="#505050"/>
<path d="M251.973 170.351C251.973 176.554 249.923 179.901 244.111 179.901H237.034V149.227H244.111C249.923 149.227 251.973 151.682 251.973 158.27V170.351ZM268.85 168.802V154.523C268.85 141.732 262.661 136.307 250.3 136.307H222.848C221.363 136.307 220.172 137.516 220.172 139.004V229.674C220.172 231.17 221.363 232.379 222.848 232.379H234.35C235.835 232.379 237.041 231.17 237.041 229.674V193.598H244.119C249.802 193.598 251.981 196.439 251.981 203.027V229.682C251.981 231.178 253.179 232.387 254.671 232.387H266.174C267.666 232.387 268.865 231.178 268.865 229.682V200.186C268.865 190.357 264.222 186.24 259.209 184.305C263.581 183.013 268.865 178.881 268.865 168.802" fill="#505050"/>
<path d="M278.859 43.0609L238.059 2.16457C235.194 -0.721522 230.536 -0.721522 227.672 2.16457L186.871 43.0609C184.014 45.9319 184.014 50.5859 186.871 53.4644L194.469 61.0725C197.326 63.9359 201.976 63.9359 204.833 61.0725L219.637 46.2416C219.833 46.0452 220.172 46.1812 220.172 46.4683V120.252C220.172 125.065 225.976 127.49 229.39 124.068L238.722 114.714C243.109 110.31 245.566 104.364 245.566 98.1459V46.4683C245.566 46.1812 245.905 46.0452 246.101 46.2416L260.897 61.0725C263.762 63.9359 268.405 63.9359 271.262 61.0725L278.852 53.4644C281.716 50.5783 281.716 45.9243 278.852 43.0609" fill="#D60B52"/>
</svg>
